<svg width="80" height="80" viewBox="0 0 80 80" fill="none" xmlns="http://www.w3.org/2000/svg">
  <rect width="80" height="80" rx="40" fill="#E5E7EB"/>
  <g transform="translate(20, 20)">
    <!-- Truck cab -->
    <rect x="5" y="15" width="12" height="12" fill="#EF4444" rx="2"/>
    
    <!-- Windshield -->
    <rect x="6" y="16" width="10" height="6" fill="#E5E7EB" rx="1"/>
    
    <!-- Grille -->
    <rect x="2" y="18" width="3" height="6" fill="#374151" rx="0.5"/>
    <rect x="2.5" y="19" width="2" height="1" fill="#6B7280"/>
    <rect x="2.5" y="21" width="2" height="1" fill="#6B7280"/>
    <rect x="2.5" y="23" width="2" height="1" fill="#6B7280"/>
    
    <!-- Headlights -->
    <circle cx="3.5" cy="20" r="1" fill="#F3F4F6"/>
    <circle cx="3.5" cy="23" r="1" fill="#F3F4F6"/>
    
    <!-- Trailer -->
    <rect x="17" y="12" width="18" height="18" fill="#3B82F6" rx="2"/>
    
    <!-- Trailer doors -->
    <rect x="33" y="14" width="2" height="14" fill="#1E40AF"/>
    <circle cx="34" cy="21" r="0.5" fill="#9CA3AF"/>
    
    <!-- Wheels -->
    <circle cx="10" cy="30" r="3" fill="#374151"/>
    <circle cx="10" cy="30" r="1.5" fill="#6B7280"/>
    
    <circle cx="22" cy="30" r="3" fill="#374151"/>
    <circle cx="22" cy="30" r="1.5" fill="#6B7280"/>
    
    <circle cx="30" cy="30" r="3" fill="#374151"/>
    <circle cx="30" cy="30" r="1.5" fill="#6B7280"/>
    
    <!-- Exhaust stack -->
    <rect x="15" y="8" width="2" height="8" fill="#6B7280" rx="1"/>
    <rect x="14.5" y="8" width="3" height="2" fill="#4B5563" rx="1"/>
    
    <!-- Smoke -->
    <circle cx="16" cy="6" r="1" fill="#9CA3AF" opacity="0.5"/>
    <circle cx="17" cy="4" r="0.8" fill="#9CA3AF" opacity="0.3"/>
    
    <!-- Side details -->
    <rect x="18" y="16" width="14" height="2" fill="#1E40AF"/>
    <rect x="18" y="26" width="14" height="2" fill="#1E40AF"/>
  </g>
</svg>