<svg width="80" height="80" viewBox="0 0 80 80" fill="none" xmlns="http://www.w3.org/2000/svg">
  <rect width="80" height="80" rx="40" fill="#E5E7EB"/>
  <g transform="translate(20, 20)">
    <!-- Excavator body -->
    <rect x="12" y="20" width="16" height="12" fill="#F59E0B" rx="2"/>
    
    <!-- Cabin -->
    <rect x="20" y="15" width="8" height="8" fill="#F59E0B" rx="1"/>
    <rect x="21" y="16" width="6" height="6" fill="#E5E7EB" rx="0.5"/>
    
    <!-- Tracks -->
    <ellipse cx="8" cy="32" rx="6" ry="3" fill="#374151"/>
    <ellipse cx="32" cy="32" rx="6" ry="3" fill="#374151"/>
    
    <!-- Track details -->
    <rect x="3" y="30" width="10" height="4" fill="#4B5563" rx="1"/>
    <rect x="27" y="30" width="10" height="4" fill="#4B5563" rx="1"/>
    
    <!-- Boom -->
    <rect x="8" y="18" width="12" height="3" fill="#F59E0B" rx="1"/>
    <circle cx="8" cy="19.5" r="2" fill="#374151"/>
    
    <!-- Arm -->
    <rect x="2" y="12" width="10" height="3" fill="#F59E0B" rx="1"/>
    <circle cx="2" cy="13.5" r="2" fill="#374151"/>
    
    <!-- Bucket -->
    <path d="M 0 10 L 6 8 L 6 12 L 2 15 Z" fill="#374151"/>
    <path d="M 0 10 L 2 15 L 0 16 Z" fill="#6B7280"/>
    
    <!-- Hydraulic cylinders -->
    <rect x="6" y="16" width="2" height="6" fill="#9CA3AF" rx="1"/>
    <rect x="10" y="14" width="2" height="4" fill="#9CA3AF" rx="1"/>
  </g>
</svg>