<svg width="80" height="80" viewBox="0 0 80 80" fill="none" xmlns="http://www.w3.org/2000/svg">
  <rect width="80" height="80" rx="40" fill="#E5E7EB"/>
  <g transform="translate(20, 20)">
    <!-- Robot base -->
    <rect x="15" y="35" width="10" height="8" fill="#6B7280" rx="2"/>
    
    <!-- Robot arm segments -->
    <rect x="18" y="25" width="4" height="12" fill="#6B7280" rx="1"/>
    <circle cx="20" cy="25" r="3" fill="#4B5563"/>
    
    <!-- Upper arm -->
    <rect x="12" y="15" width="12" height="4" fill="#6B7280" rx="1"/>
    <circle cx="12" cy="17" r="3" fill="#4B5563"/>
    
    <!-- Forearm -->
    <rect x="5" y="12" width="10" height="4" fill="#6B7280" rx="1"/>
    <circle cx="5" cy="14" r="3" fill="#4B5563"/>
    
    <!-- End effector/gripper -->
    <rect x="2" y="10" width="6" height="3" fill="#4B5563" rx="1"/>
    <rect x="1" y="11" width="2" height="1" fill="#9CA3AF"/>
    <rect x="7" y="11" width="2" height="1" fill="#9CA3AF"/>
    
    <!-- Control panel -->
    <rect x="25" y="8" width="12" height="8" fill="#4B5563" rx="1"/>
    <rect x="27" y="10" width="8" height="4" fill="#1F2937"/>
    <circle cx="29" cy="12" r="0.5" fill="#10B981"/>
    <circle cx="31" cy="12" r="0.5" fill="#EF4444"/>
    <circle cx="33" cy="12" r="0.5" fill="#F59E0B"/>
    
    <!-- Cables -->
    <path d="M 25 12 Q 22 8 18 10" stroke="#374151" stroke-width="1.5" fill="none"/>
    <path d="M 25 14 Q 22 18 18 16" stroke="#374151" stroke-width="1.5" fill="none"/>
  </g>
</svg>