<svg width="80" height="80" viewBox="0 0 80 80" fill="none" xmlns="http://www.w3.org/2000/svg">
  <rect width="80" height="80" rx="40" fill="#E5E7EB"/>
  <g transform="translate(20, 20)">
    <!-- Large gear -->
    <circle cx="20" cy="20" r="12" fill="none" stroke="#6B7280" stroke-width="2"/>
    <circle cx="20" cy="20" r="6" fill="#6B7280"/>
    <!-- Gear teeth -->
    <rect x="19" y="6" width="2" height="4" fill="#6B7280"/>
    <rect x="19" y="30" width="2" height="4" fill="#6B7280"/>
    <rect x="6" y="19" width="4" height="2" fill="#6B7280"/>
    <rect x="30" y="19" width="4" height="2" fill="#6B7280"/>
    <rect x="11.5" y="9.5" width="3" height="2" fill="#6B7280" transform="rotate(45 13 10.5)"/>
    <rect x="25.5" y="27.5" width="3" height="2" fill="#6B7280" transform="rotate(45 27 28.5)"/>
    <rect x="25.5" y="9.5" width="3" height="2" fill="#6B7280" transform="rotate(-45 27 10.5)"/>
    <rect x="11.5" y="27.5" width="3" height="2" fill="#6B7280" transform="rotate(-45 13 28.5)"/>
    
    <!-- Small gear -->
    <circle cx="32" cy="8" r="6" fill="none" stroke="#9CA3AF" stroke-width="1.5"/>
    <circle cx="32" cy="8" r="3" fill="#9CA3AF"/>
    <!-- Small gear teeth -->
    <rect x="31" y="1" width="2" height="2" fill="#9CA3AF"/>
    <rect x="31" y="13" width="2" height="2" fill="#9CA3AF"/>
    <rect x="25" y="7" width="2" height="2" fill="#9CA3AF"/>
    <rect x="37" y="7" width="2" height="2" fill="#9CA3AF"/>
    
    <!-- Bolt -->
    <circle cx="8" cy="32" r="4" fill="#6B7280"/>
    <circle cx="8" cy="32" r="2" fill="#E5E7EB"/>
    <rect x="6" y="30" width="4" height="1" fill="#4B5563"/>
    <rect x="6" y="33" width="4" height="1" fill="#4B5563"/>
  </g>
</svg>