<svg width="80" height="80" viewBox="0 0 80 80" fill="none" xmlns="http://www.w3.org/2000/svg">
  <rect width="80" height="80" rx="40" fill="#E5E7EB"/>
  <g transform="translate(20, 20)">
    <!-- CNC Machine base -->
    <rect x="5" y="25" width="30" height="15" fill="#6B7280" rx="2"/>
    
    <!-- Machine bed -->
    <rect x="8" y="20" width="24" height="8" fill="#4B5563" rx="1"/>
    
    <!-- Spindle housing -->
    <rect x="15" y="8" width="10" height="15" fill="#6B7280" rx="1"/>
    
    <!-- Spindle -->
    <circle cx="20" cy="15" r="3" fill="#374151"/>
    <circle cx="20" cy="15" r="1" fill="#9CA3AF"/>
    
    <!-- Tool -->
    <rect x="19" y="18" width="2" height="8" fill="#374151"/>
    <polygon points="19,26 21,26 20,28" fill="#374151"/>
    
    <!-- Workpiece -->
    <rect x="16" y="28" width="8" height="4" fill="#8B5CF6" rx="1"/>
    
    <!-- Control panel -->
    <rect x="25" y="10" width="8" height="12" fill="#1F2937" rx="1"/>
    <rect x="26" y="11" width="6" height="4" fill="#374151"/>
    <circle cx="27" cy="17" r="0.5" fill="#10B981"/>
    <circle cx="29" cy="17" r="0.5" fill="#EF4444"/>
    <circle cx="31" cy="17" r="0.5" fill="#F59E0B"/>
    <rect x="26" y="19" width="6" height="2" fill="#6B7280"/>
    
    <!-- Coolant lines -->
    <rect x="12" y="12" width="2" height="6" fill="#3B82F6" rx="1"/>
    <rect x="26" y="12" width="2" height="6" fill="#3B82F6" rx="1"/>
    
    <!-- Chips/swarf -->
    <circle cx="14" cy="30" r="0.5" fill="#9CA3AF"/>
    <circle cx="16" cy="31" r="0.5" fill="#9CA3AF"/>
    <circle cx="24" cy="30" r="0.5" fill="#9CA3AF"/>
    <circle cx="26" cy="31" r="0.5" fill="#9CA3AF"/>
  </g>
</svg>