<svg width="80" height="80" viewBox="0 0 80 80" fill="none" xmlns="http://www.w3.org/2000/svg">
  <rect width="80" height="80" rx="40" fill="#E5E7EB"/>
  <g transform="translate(20, 20)">
    <!-- Forklift body -->
    <rect x="15" y="25" width="12" height="8" fill="#F59E0B" rx="1"/>
    
    <!-- Cabin -->
    <rect x="18" y="20" width="6" height="8" fill="#F59E0B" rx="1"/>
    <rect x="19" y="21" width="4" height="5" fill="#E5E7EB" rx="0.5"/>
    
    <!-- Mast -->
    <rect x="12" y="8" width="3" height="20" fill="#6B7280"/>
    <rect x="10" y="8" width="3" height="20" fill="#6B7280"/>
    
    <!-- Forks -->
    <rect x="8" y="15" width="8" height="2" fill="#374151"/>
    <rect x="6" y="15" width="2" height="8" fill="#374151"/>
    <rect x="6" y="18" width="2" height="8" fill="#374151"/>
    
    <!-- Load -->
    <rect x="2" y="12" width="6" height="6" fill="#8B5CF6" rx="1"/>
    <rect x="2" y="18" width="6" height="6" fill="#8B5CF6" rx="1"/>
    
    <!-- Wheels -->
    <circle cx="18" cy="33" r="3" fill="#374151"/>
    <circle cx="25" cy="33" r="3" fill="#374151"/>
    <circle cx="18" cy="33" r="1.5" fill="#6B7280"/>
    <circle cx="25" cy="33" r="1.5" fill="#6B7280"/>
    
    <!-- Rear wheels -->
    <circle cx="30" cy="30" r="2" fill="#374151"/>
    <circle cx="30" cy="30" r="1" fill="#6B7280"/>
    
    <!-- Hydraulic cylinder -->
    <rect x="14" y="12" width="2" height="8" fill="#9CA3AF" rx="1"/>
    
    <!-- Counterweight -->
    <rect x="27" y="25" width="6" height="8" fill="#6B7280" rx="1"/>
  </g>
</svg>