<svg width="80" height="80" viewBox="0 0 80 80" fill="none" xmlns="http://www.w3.org/2000/svg">
  <rect width="80" height="80" rx="40" fill="#E5E7EB"/>
  <g transform="translate(20, 20)">
    <!-- Factory building -->
    <rect x="5" y="25" width="30" height="20" fill="#6B7280" rx="2"/>
    <!-- Chimney -->
    <rect x="10" y="15" width="4" height="15" fill="#6B7280"/>
    <rect x="25" y="10" width="4" height="20" fill="#6B7280"/>
    <!-- Smoke -->
    <circle cx="12" cy="12" r="1.5" fill="#9CA3AF" opacity="0.7"/>
    <circle cx="14" cy="9" r="1" fill="#9CA3AF" opacity="0.5"/>
    <circle cx="27" cy="7" r="1.5" fill="#9CA3AF" opacity="0.7"/>
    <circle cx="29" cy="4" r="1" fill="#9CA3AF" opacity="0.5"/>
    <!-- Windows -->
    <rect x="8" y="28" width="3" height="3" fill="#E5E7EB"/>
    <rect x="13" y="28" width="3" height="3" fill="#E5E7EB"/>
    <rect x="18" y="28" width="3" height="3" fill="#E5E7EB"/>
    <rect x="23" y="28" width="3" height="3" fill="#E5E7EB"/>
    <rect x="8" y="33" width="3" height="3" fill="#E5E7EB"/>
    <rect x="13" y="33" width="3" height="3" fill="#E5E7EB"/>
    <rect x="18" y="33" width="3" height="3" fill="#E5E7EB"/>
    <rect x="23" y="33" width="3" height="3" fill="#E5E7EB"/>
    <!-- Door -->
    <rect x="15" y="38" width="6" height="7" fill="#4B5563"/>
  </g>
</svg>