<svg width="80" height="80" viewBox="0 0 80 80" fill="none" xmlns="http://www.w3.org/2000/svg">
  <rect width="80" height="80" rx="40" fill="#E5E7EB"/>
  <g transform="translate(20, 20)">
    <!-- Main tank -->
    <rect x="8" y="15" width="24" height="25" fill="#6B7280" rx="2"/>
    <!-- Tank top -->
    <ellipse cx="20" cy="15" rx="12" ry="3" fill="#4B5563"/>
    <!-- Tank bottom -->
    <ellipse cx="20" cy="40" rx="12" ry="3" fill="#9CA3AF"/>
    
    <!-- Pipes -->
    <rect x="32" y="22" width="8" height="3" fill="#6B7280"/>
    <rect x="38" y="18" width="3" height="10" fill="#6B7280"/>
    <rect x="0" y="28" width="8" height="3" fill="#6B7280"/>
    <rect x="2" y="25" width="3" height="9" fill="#6B7280"/>
    
    <!-- Valves -->
    <circle cx="36" cy="23.5" r="2" fill="#4B5563"/>
    <circle cx="4" cy="29.5" r="2" fill="#4B5563"/>
    
    <!-- Gauge -->
    <circle cx="20" cy="25" r="4" fill="#E5E7EB" stroke="#4B5563" stroke-width="1"/>
    <circle cx="20" cy="25" r="1" fill="#4B5563"/>
    <line x1="20" y1="25" x2="22" y2="23" stroke="#4B5563" stroke-width="1"/>
    
    <!-- Level indicator -->
    <rect x="10" y="18" width="2" height="20" fill="#E5E7EB"/>
    <rect x="10" y="30" width="2" height="8" fill="#3B82F6"/>
  </g>
</svg>