<svg width="1920" height="1080" viewBox="0 0 1920 1080" xmlns="http://www.w3.org/2000/svg">
  <defs>
    <!-- Gradients -->
    <linearGradient id="skyGradient" x1="0%" y1="0%" x2="0%" y2="100%">
      <stop offset="0%" style="stop-color:#87CEEB;stop-opacity:1" />
      <stop offset="50%" style="stop-color:#98D8E8;stop-opacity:1" />
      <stop offset="100%" style="stop-color:#B0E0E6;stop-opacity:1" />
    </linearGradient>
    
    <linearGradient id="fieldGradient" x1="0%" y1="0%" x2="0%" y2="100%">
      <stop offset="0%" style="stop-color:#9ACD32;stop-opacity:1" />
      <stop offset="50%" style="stop-color:#7CB342;stop-opacity:1" />
      <stop offset="100%" style="stop-color:#689F38;stop-opacity:1" />
    </linearGradient>
    
    <linearGradient id="tractorGradient" x1="0%" y1="0%" x2="100%" y2="0%">
      <stop offset="0%" style="stop-color:#2E7D32;stop-opacity:1" />
      <stop offset="50%" style="stop-color:#388E3C;stop-opacity:1" />
      <stop offset="100%" style="stop-color:#43A047;stop-opacity:1" />
    </linearGradient>
    
    <radialGradient id="sunGradient" cx="50%" cy="50%" r="50%">
      <stop offset="0%" style="stop-color:#FFD700;stop-opacity:0.8" />
      <stop offset="70%" style="stop-color:#FFA500;stop-opacity:0.6" />
      <stop offset="100%" style="stop-color:#FF8C00;stop-opacity:0.3" />
    </radialGradient>
  </defs>
  
  <!-- Sky Background -->
  <rect width="1920" height="600" fill="url(#skyGradient)"/>
  
  <!-- Sun -->
  <circle cx="1600" cy="200" r="80" fill="url(#sunGradient)"/>
  
  <!-- Clouds -->
  <g opacity="0.7">
    <ellipse cx="300" cy="150" rx="60" ry="25" fill="white"/>
    <ellipse cx="320" cy="140" rx="40" ry="20" fill="white"/>
    <ellipse cx="280" cy="140" rx="35" ry="18" fill="white"/>
    
    <ellipse cx="800" cy="120" rx="50" ry="22" fill="white"/>
    <ellipse cx="820" cy="110" rx="35" ry="18" fill="white"/>
    
    <ellipse cx="1200" cy="180" rx="70" ry="30" fill="white"/>
    <ellipse cx="1230" cy="170" rx="45" ry="22" fill="white"/>
    <ellipse cx="1180" cy="170" rx="40" ry="20" fill="white"/>
  </g>
  
  <!-- Field Background -->
  <rect y="600" width="1920" height="480" fill="url(#fieldGradient)"/>
  
  <!-- Field Rows -->
  <g opacity="0.3">
    <rect y="620" width="1920" height="8" fill="#558B2F"/>
    <rect y="640" width="1920" height="8" fill="#558B2F"/>
    <rect y="660" width="1920" height="8" fill="#558B2F"/>
    <rect y="680" width="1920" height="8" fill="#558B2F"/>
    <rect y="700" width="1920" height="8" fill="#558B2F"/>
    <rect y="720" width="1920" height="8" fill="#558B2F"/>
    <rect y="740" width="1920" height="8" fill="#558B2F"/>
    <rect y="760" width="1920" height="8" fill="#558B2F"/>
    <rect y="780" width="1920" height="8" fill="#558B2F"/>
    <rect y="800" width="1920" height="8" fill="#558B2F"/>
  </g>
  
  <!-- Main Tractor -->
  <g transform="translate(1200, 700)">
    <!-- Tractor Body -->
    <rect x="0" y="0" width="200" height="80" rx="10" fill="url(#tractorGradient)"/>
    
    <!-- Cabin -->
    <rect x="120" y="-40" width="80" height="40" rx="5" fill="#1B5E20"/>
    <rect x="125" y="-35" width="70" height="30" rx="3" fill="#263238" opacity="0.8"/>
    
    <!-- Engine Hood -->
    <rect x="0" y="-20" width="120" height="20" rx="8" fill="#2E7D32"/>
    
    <!-- Large Rear Wheel -->
    <circle cx="40" cy="90" r="45" fill="#424242"/>
    <circle cx="40" cy="90" r="35" fill="#616161"/>
    <circle cx="40" cy="90" r="25" fill="#424242"/>
    
    <!-- Small Front Wheel -->
    <circle cx="160" cy="90" r="25" fill="#424242"/>
    <circle cx="160" cy="90" r="18" fill="#616161"/>
    <circle cx="160" cy="90" r="12" fill="#424242"/>
    
    <!-- Exhaust Pipe -->
    <rect x="90" y="-60" width="8" height="40" rx="4" fill="#37474F"/>
    
    <!-- Details -->
    <rect x="10" y="10" width="15" height="8" rx="2" fill="#FFD700"/>
    <rect x="30" y="10" width="15" height="8" rx="2" fill="#FF5722"/>
  </g>
  
  <!-- Smaller Tractor in Distance -->
  <g transform="translate(400, 750) scale(0.6)" opacity="0.7">
    <rect x="0" y="0" width="200" height="80" rx="10" fill="#4CAF50"/>
    <rect x="120" y="-40" width="80" height="40" rx="5" fill="#2E7D32"/>
    <rect x="125" y="-35" width="70" height="30" rx="3" fill="#263238" opacity="0.8"/>
    <rect x="0" y="-20" width="120" height="20" rx="8" fill="#388E3C"/>
    
    <circle cx="40" cy="90" r="45" fill="#424242"/>
    <circle cx="40" cy="90" r="35" fill="#616161"/>
    <circle cx="160" cy="90" r="25" fill="#424242"/>
    <circle cx="160" cy="90" r="18" fill="#616161"/>
    
    <rect x="90" y="-60" width="8" height="40" rx="4" fill="#37474F"/>
  </g>
  
  <!-- Combine Harvester Silhouette -->
  <g transform="translate(100, 720) scale(0.8)" opacity="0.5">
    <!-- Main Body -->
    <rect x="0" y="0" width="300" height="100" rx="15" fill="#1B5E20"/>
    
    <!-- Cabin -->
    <rect x="200" y="-50" width="100" height="50" rx="8" fill="#2E7D32"/>
    <rect x="210" y="-40" width="80" height="30" rx="5" fill="#263238" opacity="0.8"/>
    
    <!-- Header -->
    <rect x="-80" y="20" width="80" height="60" rx="5" fill="#388E3C"/>
    
    <!-- Wheels -->
    <circle cx="50" cy="120" r="35" fill="#424242"/>
    <circle cx="150" cy="120" r="35" fill="#424242"/>
    <circle cx="250" cy="120" r="35" fill="#424242"/>
  </g>
  
  <!-- Farm Buildings in Distance -->
  <g transform="translate(1600, 500)" opacity="0.6">
    <!-- Barn -->
    <rect x="0" y="50" width="120" height="80" fill="#8D6E63"/>
    <polygon points="0,50 60,10 120,50" fill="#5D4037"/>
    
    <!-- Silo -->
    <rect x="140" y="30" width="40" height="100" fill="#90A4AE"/>
    <ellipse cx="160" cy="30" rx="20" ry="8" fill="#78909C"/>
  </g>
  
  <!-- Trees -->
  <g opacity="0.4">
    <!-- Tree 1 -->
    <rect x="50" y="520" width="15" height="80" fill="#5D4037"/>
    <circle cx="57" cy="520" r="35" fill="#2E7D32"/>
    
    <!-- Tree 2 -->
    <rect x="1800" y="480" width="20" height="120" fill="#5D4037"/>
    <circle cx="1810" cy="480" r="45" fill="#388E3C"/>
    
    <!-- Tree 3 -->
    <rect x="1750" y="500" width="12" height="100" fill="#5D4037"/>
    <circle cx="1756" cy="500" r="30" fill="#2E7D32"/>
  </g>
  
  <!-- Dust/Particles Effect -->
  <g opacity="0.3">
    <circle cx="1300" cy="780" r="3" fill="#D7CCC8"/>
    <circle cx="1320" cy="785" r="2" fill="#D7CCC8"/>
    <circle cx="1340" cy="775" r="4" fill="#D7CCC8"/>
    <circle cx="1360" cy="790" r="2" fill="#D7CCC8"/>
    <circle cx="1380" cy="780" r="3" fill="#D7CCC8"/>
  </g>
  
  <!-- Overlay for depth -->
  <rect width="1920" height="1080" fill="url(#skyGradient)" opacity="0.1"/>
</svg>